<?xml version="1.0" encoding="utf-8"?>
<!-- Generator: Adobe Illustrator 20.1.0, SVG Export Plug-In . SVG Version: 6.00 Build 0)  -->
<svg version="1.0" id="Layer_1" xmlns="http://www.w3.org/2000/svg" xmlns:xlink="http://www.w3.org/1999/xlink" x="0px" y="0px"
	 viewBox="0 0 150.5 191" style="enable-background:new 0 0 150.5 191;" xml:space="preserve">
<style type="text/css">
	.st0{fill:#FFFFFF;}
</style>
<g>
	<path class="st0" d="M134.6,74.9c-0.8,0.6-12,10.3-19.2-2.1l-3.6-6.4c0,0-0.9-1.9-1.9,0.7c-1,2.5-2.5,8.8-2.5,8.8
		s10.2,17.7,10.7,23.7c0,0-18.5,19.7-37.8,24.9c0,0-5.1,2.1-13,0.8c-7.8-1.3-13.5-5.4-14-16.3c0,0,0.1-6.4,3.5-15.8
		c0,0-0.6-0.8-1.3,1.2c-0.8,2-6.7,14-3.2,29.8c0,0,2.4,11.9,16.2,13.3c0,0,12.2,1.8,31.1-11.8c0,0,17.6-11,21.4-24.6
		c0,0,1.3-5.9,0.8-11.1c0,0,3.8,1.1,9-1.6l3.5-1.8c0,0,3-1.2,4-7.5c1-6.3,0.9-15.3-7-26.3L129.4,64c0,0,4.8,6.2,5.6,9.6
		C135,73.6,135.5,74.3,134.6,74.9z"/>
	<path class="st0" d="M37.2,108.1c4.5-3.1,19.6-15.4,22.7-22c0,0,2.2-4,2.4-8.2c0,0,1.5,25.1,14.6,30.4c0,0,18.3,5.5,22.5-13
		c0,0,4.6-17.2-10.2-33.6L86,74.4c0,0,10.7,12.6,10.7,19.3c0,0-13.9,6.5-21,0.3c-7.2-6.2-8.4-19.8-8.4-19.8s-1.8-15.7-4.4-24.1
		C60.3,41.7,57.3,27.3,44,6.6L41.2,18c0,0,18.2,44,18.5,53c0,0-1.2,6.1-8.3,13.4c0,0-18.8,19.6-34.9,21.7c-16.2,2.1-13.8-12-13.8-12
		S3.3,86,8.2,71.8c0,0,0.8-5.1-1.6,0.1C4.1,77.1-4,93,2.4,110C8.7,127,32.7,111.3,37.2,108.1z"/>
	<path class="st0" d="M65.6,8.6c1.6,0.6,3.4,2,3.4,2c0.2-0.1,0.4-1.4,0.4-1.4c4.5,3.4,5.2,9.3,5.7,11c0.5,1.7,1.3,0.4,1.8-1.3
		c0.5-1.7,1.4-7.4,2.3-11.2c0.9-3.8,2.3-2.9,3.2-2.4c0.9,0.5,2.1,2.2,2.1,2.2c1.9-3,1.1-5.1,1.1-5.1c-3-3.9-4.9-1.5-4.9-1.5
		c-3,3.8-3.9,13.8-4.3,15.1C76.2,17,76,15.9,76,15.9c-1.4-7.8-4.9-11.6-7.6-13.4C65.8,0.6,65.3,3,65.3,3s-0.5,2.2-0.7,2.9
		C64.4,6.6,64,8,65.6,8.6z"/>
	<path class="st0" d="M28,66.4c1.6,0.6,3.4,2,3.4,2c0.2-0.1,0.4-1.4,0.4-1.4c4.5,3.4,5.2,9.3,5.7,11c0.5,1.7,1.3,0.4,1.8-1.3
		c0.5-1.7,1.4-7.4,2.3-11.3c0.8-3.8,2.3-2.9,3.2-2.4c0.9,0.5,2.1,2.2,2.1,2.2c1.9-3,1.1-5.1,1.1-5.1c-3-3.9-4.9-1.5-4.9-1.5
		c-3,3.8-3.9,13.8-4.3,15.1c-0.3,1.2-0.5,0.1-0.5,0.1C37,65.9,33.6,62,30.9,60.2c-2.7-1.8-3.2,0.6-3.2,0.6S27.2,63,27,63.7
		C26.8,64.3,26.4,65.8,28,66.4z"/>
	<path class="st0" d="M32.4,141.4c0.5-1.7,1.4-7.4,2.3-11.3c0.8-3.8,2.3-2.9,3.2-2.4c0.9,0.5,2.1,2.2,2.1,2.2c1.9-3,1.1-5.1,1.1-5.1
		c-3-3.9-4.9-1.5-4.9-1.5c-3,3.8-3.9,13.8-4.2,15.1c-0.3,1.2-0.5,0.1-0.5,0.1c-1.4-7.8-4.9-11.6-7.6-13.4c-2.7-1.8-3.2,0.6-3.2,0.6
		s-0.5,2.2-0.7,2.9c-0.2,0.7-0.6,2.1,1,2.7c1.6,0.6,3.4,2,3.4,2c0.2-0.1,0.4-1.4,0.4-1.4c4.5,3.4,5.2,9.3,5.7,11
		C31.1,144.3,31.9,143,32.4,141.4z"/>
	<polygon class="st0" points="130,109 139.7,118.2 148.3,109.3 138.4,100 	"/>
	<path class="st0" d="M85.7,35l-9.6-9.1l-8.8,9.3l9.8,8.8C77.1,43.9,84.7,35.3,85.7,35z"/>
	<path class="st0" d="M75.6,157.7c0,0,29.5-18,47.1-24.2l1.9-5.4c0,0-37,16.8-46.6,23.1L75.6,157.7z"/>
	<path class="st0" d="M78.6,53.6c-2.4,2.9-5,7.7-4.9,11.4c0.2,3.6,3.1,5.5,5,4.7c0,0,3.3-1.5,2.2-6.4c0,0-0.9-0.4-1.1,0.8
		c-0.3,1.5-1.2,2.6-2.7,1.9c-1.7-0.8-2.8-4.9,2.9-12.8C80,53.1,80.3,51.5,78.6,53.6z"/>
	<path class="st0" d="M64.2,102.4c-2.4,2.9-5,7.7-4.9,11.4c0.2,3.7,3.1,5.5,4.9,4.7c0,0,3.3-1.5,2.2-6.4c0,0-0.9-0.4-1.1,0.8
		c-0.3,1.5-1.2,2.6-2.7,1.9c-1.7-0.8-2.8-4.9,2.9-12.8C65.6,102,65.9,100.4,64.2,102.4z"/>
	<path class="st0" d="M55.2,137.9c-2.4,2.9-5,7.7-4.9,11.4c0.2,3.7,3.1,5.5,5,4.7c0,0,3.3-1.5,2.2-6.4c0,0-0.9-0.4-1.1,0.8
		c-0.3,1.5-1.2,2.6-2.7,1.8c-1.7-0.8-2.8-4.9,2.9-12.8C56.5,137.4,56.9,135.8,55.2,137.9z"/>
	<path class="st0" d="M106.6,28.9c0,0,4.3-2,2.9-8.4c0,0-1.2-0.5-1.5,1.1c-0.3,2-1.5,3.4-3.6,2.4c-2.3-1.1-3.7-6.5,3.9-16.8
		c0,0,0.4-2.1-1.8,0.6c-3.1,3.8-6.6,10.1-6.4,14.9C100.3,27.6,104.2,30,106.6,28.9z"/>
	<path class="st0" d="M21.5,77.5c-2.6,3.2-5.5,8.4-5.3,12.4c0.2,4,3.4,6,5.4,5.1c0,0,3.6-1.7,2.4-7c0,0-1-0.4-1.2,0.9
		c-0.3,1.6-1.3,2.8-3,2c-1.9-0.9-3.1-5.4,3.2-14C23,76.9,23.4,75.2,21.5,77.5z"/>
	<path class="st0" d="M145.3,95.3c0,0,3.6-1.7,2.4-7c0,0-1-0.4-1.2,0.9c-0.3,1.6-1.3,2.8-3,2c-1.9-0.9-3.1-5.4,3.2-14
		c0,0,0.3-1.7-1.5,0.5c-2.6,3.2-5.5,8.4-5.3,12.4C140.1,94.1,143.3,96.2,145.3,95.3z"/>
	<path class="st0" d="M137.1,43.9c0,0,4.4-9.3-6.2-21.4l-1.2,3.5C129.7,26.1,136,31.8,137.1,43.9z"/>
	<path class="st0" d="M106.1,44.9l13,0.2c0,0,2.2,0.2-0.7,1.7c-2.9,1.5-9.3,5.7-9.3,5.7s11.1,1.9,15.7-9.9c0,0,2.2-4.4-2.2-4.4
		c-4.4,0-13.5,0.2-13.5,0.2L106.1,44.9z"/>
	<path class="st0" d="M17.8,46.8c-2.9,1.5-9.3,5.7-9.3,5.7s11.1,1.9,15.7-9.9c0,0,2.2-4.4-2.2-4.4c-4.4,0-13.5,0.2-13.5,0.2l-4,6.6
		l13.9,0.2C18.4,45.2,20.6,45.3,17.8,46.8z"/>
	<path class="st0" d="M19.5,167.2c2.5-1.1,5.2-4.2,5.2-7.2c0-8.4-5.4-11.2-11.5-11.2c-1.6,0-4,0.2-5.7,0.4c-2.3,0.2-3.4,0.3-4.1,0.3
		c-0.6,0-0.8-0.1-1.3-0.3H0c0,0,0,1.8,0,1.9v38.1c0,0.1,0,1.8,0,1.8h2.2c1.1-0.5,2.8-0.6,4.5-0.6c3.7,0,8,0.7,8.6,0.7
		c8.4,0,14.2-3.7,14.2-12C29.5,172,24.3,168.2,19.5,167.2z M5.1,150.5c1.3-0.1,3.7-0.3,4.6-0.3c5.6,0,10.7,3.2,10.7,9.8
		c0,3.7-1.8,6.9-3.8,6.9c-2.6,0.1-3,0.1-11.5,0.1V150.5z M15.1,190.1c-1.6-0.1-4.5-0.8-7.7-0.8c-0.8,0-1.6,0.1-2.3,0.1v-21.3h9
		c7,0,10.5,6.4,10.5,11.9C24.5,184.9,22.2,190.1,15.1,190.1z"/>
	<path class="st0" d="M50,160.7c-0.6,0-1.3,0-3,1.4c-0.9,0.8-1.8,2-2.8,3.3c-1.1,1.7-2.3,3.8-3.5,6v-8.6c0-1.6-1.3-2.1-2.7-2.1
		c-0.8,0-1.7,0.2-2.3,0.6l-4.8,2.5v1.1l1.7-0.9c0.6-0.4,1.3-0.6,1.8-0.6c0.8,0,1.3,0.5,1.3,1.8V191h5v-17c0-0.4,0-0.5,0.1-0.7
		c4-6.9,4.7-5.6,9.2-5.9c1.8,0,3.3-1.4,3.3-3.3C53.3,162.3,51.8,160.7,50,160.7z"/>
	<path class="st0" d="M69.1,160.7c-8.4,0-15.4,6.8-15.4,15.1c0,8.2,6.7,15.1,15.1,15.1c5.2,0,9.8-2.6,12.5-6.5l-0.6-0.9
		c-0.9,1.5-4,5.5-7.9,5.5c-4.7,0-9.1-3.2-11.8-6.8L80.1,172c1.2-0.6,2.3-2,2.3-3.4C82.4,167,79,160.7,69.1,160.7z M76.1,173.1
		l-15.6,8.3c-1.6-2.1-2.3-6-2.3-8.7c0-5.3,2.1-10.1,7.6-10.1c6.5,0,11.8,5.3,11.8,8.1C77.6,171.6,77,172.6,76.1,173.1z"/>
	<path class="st0" d="M113.7,188.4v-25.6c0-1.6-1.3-2.1-2.6-2.1c-0.8,0-1.7,0.2-2.4,0.6l-15.1,8.1v-6.5c0-1.6-1.3-2.1-2.6-2.1
		c-0.8,0-1.7,0.2-2.4,0.6l-4.8,2.5v1.1l1.8-0.9c0.6-0.4,1.2-0.6,1.7-0.6c0.8,0,1.3,0.5,1.3,1.8V191h5v-20.5l12.1-6.4
		c0.6-0.4,1.2-0.6,1.7-0.6c0.8,0,1.3,0.5,1.3,1.8v22.6c0,1.9,1.3,3.1,3.1,3.1h4.4V190C115.5,189.8,113.7,189.4,113.7,188.4z"/>
	<path class="st0" d="M148,188.4v-40.6c0-1.6-1.3-2.2-2.7-2.2c-0.8,0-1.7,0.3-2.3,0.6l-4.8,2.6v1.1l1.7-0.9c0.6-0.3,1.2-0.5,1.7-0.5
		c0.8,0,1.4,0.4,1.4,1.7v14.5c-2.8-2.5-6.4-3.9-10.3-3.9c-10.4,0-14.4,7-14.4,15.1c0,10.2,5.9,15.1,14.7,15.1c3.8,0,7.2-2.6,9.9-5
		v1.9c0.1,1.9,1.3,3.1,3.2,3.1h4.4V190C149.8,189.8,148,189.4,148,188.4z M136.2,187.9c-4.3,0-13.7-3.8-13.7-15.9
		c0-7.5,3.7-10.1,9.1-10.1c4.3,0,12,2,12,14.4C143.6,181.6,142.1,187.9,136.2,187.9z"/>
</g>
</svg>
